<?xml version="1.0" encoding="UTF-8"?>
<svg id="Layer_1" data-name="Layer 1" xmlns="http://www.w3.org/2000/svg" viewBox="0 0 366.5 218.31">
  <defs>
    <style>
      .cls-1 {
        fill: #f26722;
        stroke-width: 0px;
      }
    </style>
  </defs>
  <path class="cls-1" d="m20.61,79.45c-6.13,0-11.26-2.34-16.12-6.1l-1.33-12.7c3.35,2.71,8.21,4.3,14.15,5.82,9.68,2.48,11.66,4.13,11.66,7.36v.17c0,3.39-3.14,5.45-8.35,5.45Zm112.8-13.81h15.38l-7.69-18.77-7.69,18.77Zm84.06,23.15L8.42,110.76l-2.41-22.92c4.58,1.9,9.48,2.85,14.35,2.85,12.49,0,21.25-6.45,21.25-17.94v-.17c0-10.09-6.62-14.3-18.36-17.37-10.01-2.56-12.49-3.8-12.49-7.61v-.16c0-2.81,2.56-5.05,7.44-5.05s9.92,2.15,15.05,5.7l6.62-9.59c-5.87-4.71-13.06-7.36-21.5-7.36-7.78,0-14.07,3.02-17.48,8.06l-.9-8.54L291.93,0l8.42,80.08-15.03,1.58v-3.11h-31.42v-12.16h27.29v-11.33h-27.29v-11.74h31.01v-11.33h-43.66v54.3l-9.6,1.01-22.74-30.75,23.57-24.56h-15.38l-23.49,25.31v-25.31h-12.73v57.89h12.73v-17.7l6.7-6.95,17.15,23.56ZM101.65,31.99h-12.74v22.91h-23.49v-22.91h-12.74v57.89h12.74v-23.24h23.49v23.24h12.74V31.99Zm70.29,57.89l-24.81-58.3h-11.74l-24.81,58.3h12.99l5.29-12.99h24.48l5.29,12.99h13.32Zm-13.52,14.1l-23.04,2.42,10.71,35,12.34-37.42Zm203.34,56.11l.36,3.44-291.93,30.68-8.42-80.07,60.55-6.36,17.87,52.73h11.08l13.07-37.88,13.06,37.88h11.08l19.76-58.3h-13.32l-11.99,39.2-12.75-38.66,183.5-19.29,6.84,65.05h-23.52v-46.31h-12.73v57.89h37.47Zm-99.99-11.33h-31.43v-12.16h27.29v-11.33h-27.29v-11.74h31.01v-11.33h-43.66v57.89h44.08v-11.33Zm52.93-.25h-28.86v-46.31h-12.73v57.89h41.6v-11.58Z"/>
  <g>
    <path class="cls-1" d="m169.59,205.87v-.08c-.81-7.63,4.24-14.47,12.37-15.33,4.94-.52,8.12.89,10.94,3.07l-2.66,3.8c-2.36-1.77-4.8-2.87-7.86-2.54-5.14.54-8.41,5.15-7.86,10.4v.08c.56,5.25,4.73,9.15,9.87,8.61,3.3-.35,5.26-1.91,7.34-4.3l3.35,2.75c-2.49,3.21-5.36,5.37-10.38,5.9-7.82.82-14.29-4.66-15.1-12.36Z"/>
    <path class="cls-1" d="m197.65,189.28l11.96-1.26c3.37-.35,6.12.36,8.03,1.87,1.57,1.31,2.59,3.21,2.83,5.55v.08c.47,4.41-1.89,7.33-5.54,8.8l8.31,9.4-5.56.58-7.58-8.66h-.08s-5.83.62-5.83.62l.98,9.35-4.71.5-2.82-26.83Zm13.01,12.08c3.37-.35,5.33-2.34,5.05-5.06v-.08c-.31-2.87-2.54-4.23-6.03-3.86l-6.86.72.95,9.01,6.9-.73Z"/>
    <path class="cls-1" d="m225.36,186.36l19.89-2.09.44,4.22-15.18,1.59.73,6.98,13.45-1.41.44,4.22-13.45,1.41.76,7.21,15.37-1.62.44,4.22-20.08,2.11-2.82-26.83Z"/>
    <path class="cls-1" d="m260.52,182.47l4.37-.46,14.64,25.78-4.98.52-3.4-6.19-12.69,1.33-2.08,6.77-4.83.51,8.96-28.26Zm8.46,15.66l-5.76-10.25-3.47,11.22,9.24-.97Z"/>
    <path class="cls-1" d="m284.91,184.52l-8.51.89-.46-4.37,21.77-2.29.46,4.37-8.51.89,2.36,22.46-4.75.5-2.36-22.46Z"/>
    <path class="cls-1" d="m302.97,178.21l4.71-.5,2.82,26.83-4.71.5-2.82-26.83Z"/>
    <path class="cls-1" d="m312.55,177.2l5.21-.55,10.26,19.77,5.88-21.47,5.1-.54-8.31,28.19-4.14.44-13.99-25.85Z"/>
    <path class="cls-1" d="m343.59,173.94l19.89-2.09.44,4.22-15.18,1.59.73,6.98,13.45-1.41.44,4.21-13.45,1.41.76,7.21,15.37-1.62.44,4.22-20.08,2.11-2.82-26.83Z"/>
  </g>
</svg>